<svg width="24" height="24" viewBox="0 0 24 24" fill="none" xmlns="http://www.w3.org/2000/svg">
<path d="M12 8.25006C11.1304 8.25006 10.5784 8.77431 9.89847 9.37506C9.21857 9.97581 8.50336 10.7437 7.83988 11.5079C6.5129 13.0362 5.39652 14.5547 5.39652 14.5547C5.33803 14.634 5.29574 14.724 5.27204 14.8196C5.24834 14.9152 5.2437 15.0145 5.25839 15.1119C5.27308 15.2093 5.30681 15.3029 5.35766 15.3872C5.4085 15.4716 5.47546 15.5451 5.55472 15.6036C5.63397 15.6621 5.72397 15.7044 5.81957 15.7281C5.91517 15.7518 6.01451 15.7564 6.1119 15.7417C6.20929 15.727 6.30284 15.6933 6.3872 15.6424C6.47155 15.5916 6.54507 15.5246 6.60355 15.4454C6.60355 15.4454 7.69497 13.9639 8.97269 12.4922C9.61155 11.7564 10.2993 11.0243 10.8926 10.5001C11.4859 9.97581 12.0791 9.75006 12 9.75006C11.9214 9.75006 12.5088 9.9713 13.0977 10.4903C14.8776 12.0589 17.3965 15.4454 17.3965 15.4454C17.455 15.5246 17.5285 15.5916 17.6129 15.6424C17.6972 15.6933 17.7908 15.727 17.8882 15.7417C17.9856 15.7564 18.0849 15.7518 18.1805 15.7281C18.2761 15.7044 18.3661 15.6621 18.4453 15.6036C18.5246 15.5451 18.5916 15.4716 18.6424 15.3872C18.6933 15.3029 18.727 15.2093 18.7417 15.1119C18.7564 15.0145 18.7517 14.9152 18.728 14.8196C18.7043 14.724 18.662 14.634 18.6035 14.5547C18.6035 14.5547 16.1325 11.1654 14.0899 9.3653C13.4141 8.76971 12.8648 8.25007 12 8.25006Z" fill="#666666"/>
</svg>
