<svg width="20" height="20" viewBox="0 0 20 20" fill="none" xmlns="http://www.w3.org/2000/svg">
<path fill-rule="evenodd" clip-rule="evenodd" d="M7.87032 6.33656C8.14822 6.13186 8.20761 5.74062 8.00292 5.4627C7.79823 5.18476 7.40698 5.12538 7.12905 5.33007L7.49967 5.83332C7.12905 5.33007 7.12905 5.33007 7.12905 5.33007L7.12795 5.33088L7.12534 5.33281L7.11571 5.33993L7.0794 5.36691C7.04788 5.39041 7.00205 5.42471 6.94395 5.46859C6.82778 5.55634 6.66238 5.68251 6.46412 5.83723C6.06826 6.14616 5.53834 6.57127 5.00658 7.03295C4.47794 7.49194 3.93319 7.99936 3.51568 8.47187C3.30756 8.70741 3.11785 8.94899 2.97678 9.183C2.84605 9.39985 2.70801 9.68865 2.70801 9.99996C2.70801 10.3113 2.84606 10.6001 2.97678 10.8169C3.11785 11.0509 3.30756 11.2925 3.51568 11.5281C3.93318 12.0006 4.47793 12.508 5.00657 12.967C5.53831 13.4287 6.06823 13.8538 6.46408 14.1627C6.66234 14.3175 6.82774 14.4436 6.94391 14.5314C7.00201 14.5753 7.04784 14.6096 7.07936 14.6331L7.11567 14.66L7.1253 14.6672L7.12791 14.6691L7.12865 14.6696C7.12865 14.6696 7.12901 14.6699 7.49964 14.1667L7.12865 14.6696C7.40658 14.8743 7.79819 14.8152 8.00288 14.5373C8.20758 14.2594 8.14821 13.8681 7.87028 13.6634L7.86794 13.6617L7.85971 13.6556L7.82633 13.6308C7.79682 13.6088 7.75313 13.5761 7.6973 13.5339C7.58561 13.4496 7.42549 13.3274 7.23313 13.1773C6.84774 12.8765 6.336 12.4659 5.82609 12.0231C5.31307 11.5777 4.81616 11.1121 4.45241 10.7004C4.42976 10.6747 4.40783 10.6495 4.38661 10.6248L16.6666 10.6248C17.0117 10.6248 17.2916 10.345 17.2916 9.99979C17.2916 9.65461 17.0117 9.37479 16.6666 9.37479L4.38691 9.37479C4.40803 9.35014 4.42986 9.32506 4.45241 9.29954C4.81615 8.88787 5.31307 8.42225 5.82609 7.97683C6.33601 7.53411 6.84775 7.12343 7.23315 6.82267C7.42551 6.67255 7.58563 6.55041 7.69733 6.46605C7.75316 6.42388 7.79684 6.39119 7.82636 6.36919L7.85973 6.34439L7.86796 6.3383L7.87032 6.33656Z" fill="#F24D0D"/>
</svg>
