<svg width="20" height="20" viewBox="0 0 20 20" fill="none" xmlns="http://www.w3.org/2000/svg">
<path fill-rule="evenodd" clip-rule="evenodd" d="M1.25 9.85C1.25 5.10035 5.10035 1.25 9.85 1.25C14.5996 1.25 18.45 5.10035 18.45 9.85C18.45 14.5996 14.5996 18.45 9.85 18.45C5.10035 18.45 1.25 14.5996 1.25 9.85ZM4.21027 5.0588C3.11243 6.3498 2.45 8.02254 2.45 9.85C2.45 13.9369 5.76309 17.25 9.85 17.25C11.6774 17.25 13.3502 16.5876 14.6412 15.4897L4.21027 5.0588ZM5.0588 4.21027L15.4897 14.6412C16.5876 13.3502 17.25 11.6774 17.25 9.85C17.25 5.76309 13.9369 2.45 9.85 2.45C8.02254 2.45 6.3498 3.11243 5.0588 4.21027Z" fill="#F24D0D"/>
</svg>
